<?xml version="1.0" standalone="no"?>
<!DOCTYPE svg PUBLIC "-//W3C//DTD SVG 20010904//EN"
 "http://www.w3.org/TR/2001/REC-SVG-20010904/DTD/svg10.dtd">
<svg version="1.0" xmlns="http://www.w3.org/2000/svg"
 width="5000.000000pt" height="484.000000pt" viewBox="0 0 1000.000000 484.000000"
 preserveAspectRatio="xMidYMid meet">

<g transform="translate(0.000000,484.000000) scale(0.100000,-0.100000)"
fill="#000000" stroke="none">
<path d="M3995 2503 c-56 -9 -55 -6 -55 -269 l0 -244 25 -6 c50 -12 55 -2 55
100 l0 94 83 3 c139 6 201 57 201 166 0 65 -22 99 -86 131 -47 24 -157 36
-223 25z m211 -96 c42 -49 27 -124 -31 -152 -19 -8 -60 -15 -94 -15 l-61 0 0
101 0 101 81 -4 c74 -3 83 -6 105 -31z"/>
<path d="M4511 2484 c-109 -55 -158 -198 -116 -340 31 -104 115 -165 227 -166
81 0 139 24 183 74 83 98 88 272 10 375 -63 81 -202 108 -304 57z m209 -64
c101 -72 95 -288 -9 -357 -47 -31 -125 -31 -172 0 -50 32 -81 103 -81 181 0
98 40 170 112 199 32 14 117 1 150 -23z"/>
<path d="M5031 2493 c-52 -27 -76 -66 -76 -123 0 -69 25 -97 126 -142 102 -45
129 -69 129 -113 0 -25 -7 -39 -27 -55 -25 -19 -37 -21 -98 -17 -38 3 -82 9
-97 12 -23 6 -29 3 -37 -16 -8 -22 -5 -26 31 -42 48 -22 156 -26 209 -9 20 7
49 26 64 42 24 25 29 39 29 84 1 77 -20 101 -133 157 -52 25 -100 54 -107 64
-23 31 -17 71 14 95 23 19 35 21 87 17 33 -3 70 -9 82 -12 28 -9 43 30 19 53
-25 25 -171 28 -215 5z"/>
<path d="M5552 2243 l3 -258 150 0 150 0 0 30 0 30 -117 3 -118 3 0 224 0 225
-35 0 -35 0 2 -257z"/>
<path d="M6038 2398 c-25 -57 -69 -166 -98 -243 -29 -77 -57 -145 -62 -151
-12 -16 37 -27 61 -15 10 6 28 37 40 71 l22 60 114 0 113 0 24 -61 c25 -66 44
-83 81 -73 l24 5 -57 152 c-32 84 -77 197 -102 252 -43 98 -44 100 -79 103
l-36 3 -45 -103z m128 -100 c23 -57 39 -106 37 -110 -8 -14 -173 -9 -173 5 -1
23 75 207 85 207 6 0 29 -46 51 -102z"/>
<path d="M6432 2243 l3 -258 30 0 30 0 5 199 5 199 36 -44 c50 -63 149 -202
198 -281 40 -64 69 -87 91 -73 6 4 10 100 10 261 l0 255 -32 -3 -33 -3 -3
-184 -2 -184 -62 89 c-141 205 -211 284 -250 284 l-28 0 2 -257z"/>
<path d="M6976 2485 c-3 -9 -6 -124 -6 -256 0 -260 0 -259 55 -245 25 6 25 7
25 121 0 72 4 115 10 115 15 0 174 -154 201 -196 26 -38 59 -52 91 -37 19 8
17 13 -39 83 -33 41 -88 101 -122 132 l-63 57 111 118 111 118 -39 3 c-37 3
-42 -1 -141 -102 -57 -59 -107 -106 -111 -106 -5 0 -10 46 -11 103 l-3 102
-31 3 c-22 2 -33 -2 -38 -13z"/>
<path d="M7551 2406 c-66 -152 -162 -407 -155 -417 3 -5 16 -9 29 -9 28 0 46
25 65 85 7 22 18 43 24 47 6 4 56 8 111 8 55 0 105 -4 111 -8 5 -4 19 -32 30
-61 24 -62 40 -77 77 -68 l25 7 -58 153 c-32 85 -78 198 -102 253 -43 97 -44
99 -79 102 l-36 3 -42 -95z m134 -133 c18 -45 30 -84 27 -87 -3 -4 -43 -6 -90
-6 l-84 0 5 28 c3 15 22 67 43 116 l37 89 15 -29 c8 -16 30 -66 47 -111z"/>
<path d="M5836 1763 c-3 -3 -6 -21 -6 -40 0 -32 -2 -33 -38 -33 -47 0 -70 -22
-79 -73 -5 -31 -1 -40 25 -67 30 -30 55 -36 100 -24 21 6 22 11 22 120 0 103
-6 134 -24 117z m-18 -105 c7 -7 12 -34 12 -60 0 -46 -1 -48 -29 -48 -54 0
-79 62 -41 100 23 23 41 25 58 8z"/>
<path d="M7056 1748 c-22 -31 -23 -218 -1 -218 11 0 15 16 17 68 3 65 4 67 31
70 34 4 36 22 3 22 -48 0 -43 47 5 57 36 7 28 23 -11 23 -18 0 -34 -8 -44 -22z"/>
<path d="M3915 1738 c-10 -25 -1 -208 10 -208 13 0 19 200 6 213 -7 7 -12 5
-16 -5z"/>
<path d="M5384 1739 c-71 -36 -71 -174 1 -207 43 -20 105 -13 105 12 0 7 -15
10 -43 8 -56 -5 -82 22 -82 83 0 60 25 85 82 85 31 0 43 4 41 13 -6 15 -76 20
-104 6z"/>
<path d="M6232 1743 c-20 -8 -3 -23 28 -23 l29 0 3 -97 c4 -127 22 -125 26 2
l3 95 29 0 c33 0 48 15 24 24 -18 7 -123 7 -142 -1z"/>
<path d="M4876 1724 c-8 -21 -8 -113 0 -154 8 -39 43 -58 76 -43 22 11 22 11
3 18 -44 15 -50 22 -53 68 -3 44 -1 47 25 53 48 10 49 12 15 19 -22 5 -34 15
-38 31 -7 28 -19 31 -28 8z"/>
<path d="M3994 1677 c-9 -24 0 -152 11 -150 6 2 12 33 15 70 5 64 6 68 30 68
31 0 50 -35 50 -92 0 -24 5 -43 10 -43 17 0 12 126 -6 144 -20 20 -102 22
-110 3z"/>
<path d="M4180 1610 c0 -63 3 -80 15 -80 11 0 15 16 17 67 2 53 7 68 19 71 31
6 49 -26 49 -84 0 -41 4 -54 15 -54 12 0 15 13 15 58 0 81 -17 102 -81 102
l-49 0 0 -80z"/>
<path d="M4376 1671 c-9 -10 -19 -35 -23 -54 -5 -31 -1 -40 25 -67 36 -36 62
-38 96 -7 36 31 42 74 17 115 -18 27 -27 32 -59 32 -25 0 -45 -7 -56 -19z m93
-36 c12 -25 12 -32 0 -54 -19 -34 -53 -38 -73 -9 -22 30 -20 54 5 79 26 26 50
21 68 -16z"/>
<path d="M4536 1681 c-4 -5 6 -41 20 -80 35 -95 53 -95 88 0 30 81 31 90 12
83 -8 -3 -22 -30 -32 -60 -15 -48 -18 -52 -29 -37 -7 10 -18 35 -24 55 -13 40
-26 54 -35 39z"/>
<path d="M4715 1680 c-3 -6 5 -10 19 -10 36 0 56 -10 56 -29 0 -11 -10 -17
-33 -18 -41 -3 -69 -35 -58 -66 10 -26 58 -42 95 -33 24 6 26 10 26 67 0 81
-11 99 -60 99 -21 0 -42 -4 -45 -10z m75 -105 c0 -21 -5 -25 -29 -25 -31 0
-46 21 -28 39 6 6 21 11 34 11 18 0 23 -6 23 -25z"/>
<path d="M5021 1671 c-25 -25 -28 -86 -6 -118 17 -24 64 -38 95 -28 29 9 14
25 -24 25 -33 0 -56 15 -56 37 0 9 16 13 50 13 58 0 72 17 49 59 -20 35 -79
41 -108 12z m80 -17 c10 -13 10 -17 -2 -25 -18 -11 -56 -12 -64 0 -7 12 22 41
39 41 8 0 19 -7 27 -16z"/>
<path d="M5550 1668 c-29 -32 -27 -92 5 -123 65 -66 159 22 114 108 -16 30
-28 37 -66 37 -20 0 -40 -8 -53 -22z m84 -14 c32 -31 13 -104 -27 -104 -32 0
-47 18 -47 56 0 34 21 64 45 64 7 0 21 -7 29 -16z"/>
<path d="M5921 1664 c-51 -65 6 -160 84 -140 36 9 31 26 -8 26 -34 0 -57 15
-57 37 0 9 14 13 43 13 59 0 70 10 57 46 -14 35 -26 44 -67 44 -22 0 -38 -8
-52 -26z m73 0 c9 -3 16 -15 16 -25 0 -15 -7 -19 -35 -19 -36 0 -46 15 -23 38
14 14 20 14 42 6z"/>
<path d="M6434 1677 c-9 -24 0 -152 11 -152 6 0 11 33 13 73 l3 72 30 0 c18 0
28 4 24 10 -9 15 -75 12 -81 -3z"/>
<path d="M6555 1680 c-3 -6 5 -10 19 -10 36 0 56 -10 56 -29 0 -11 -10 -17
-33 -18 -41 -3 -69 -35 -58 -66 10 -26 58 -42 95 -33 24 6 26 10 26 67 0 81
-11 99 -60 99 -21 0 -42 -4 -45 -10z m75 -105 c0 -21 -5 -25 -29 -25 -31 0
-46 21 -28 39 6 6 21 11 34 11 18 0 23 -6 23 -25z"/>
<path d="M6720 1610 c0 -63 3 -80 15 -80 11 0 15 16 17 67 2 53 7 68 19 71 31
6 49 -26 49 -84 0 -41 4 -54 15 -54 12 0 15 13 15 58 0 81 -17 102 -81 102
l-49 0 0 -80z"/>
<path d="M6900 1675 c-20 -24 -4 -59 35 -78 43 -20 41 -40 -4 -47 -41 -6 -45
-24 -5 -28 19 -2 39 4 54 16 30 24 20 58 -26 80 -43 20 -41 46 4 50 18 2 30 8
27 13 -10 15 -71 10 -85 -6z"/>
<path d="M7180 1668 c-50 -54 -5 -157 63 -144 40 8 67 39 67 78 0 31 -16 68
-34 80 -23 16 -75 8 -96 -14z m84 -14 c32 -31 13 -104 -27 -104 -32 0 -47 18
-47 56 0 34 21 64 45 64 7 0 21 -7 29 -16z"/>
<path d="M7354 1677 c-9 -24 0 -152 11 -152 6 0 11 31 13 68 3 66 4 68 32 74
16 3 27 9 24 14 -8 14 -74 10 -80 -4z"/>
<path d="M7480 1610 c0 -64 3 -80 15 -80 12 0 15 14 15 65 0 49 4 67 15 71 28
11 44 -15 47 -77 4 -82 22 -80 26 3 2 57 6 68 23 73 33 11 48 -12 51 -78 4
-83 22 -79 26 4 4 92 -3 97 -123 98 l-95 0 0 -79z"/>
<path d="M5180 1540 c0 -13 5 -18 15 -14 8 4 15 12 15 20 0 8 -7 14 -15 14 -8
0 -15 -9 -15 -20z"/>
<path d="M6092 1544 c4 -21 22 -23 26 -1 2 10 -3 17 -13 17 -10 0 -15 -6 -13
-16z"/>
<path d="M7752 1544 c4 -21 22 -23 26 -1 2 10 -3 17 -13 17 -10 0 -15 -6 -13
-16z"/>
</g>
</svg>
